# Blender v3.2.0 OBJ File: ''
# www.blender.org
mtllib Estacioninternacional.mtl
o Cube.001
v -3.139983 -0.044785 0.130243
v -3.139983 0.044785 0.130243
v -3.139983 -0.044785 -0.130243
v -3.139983 0.044785 -0.130243
v 3.139983 -0.044785 0.130243
v 3.139983 0.044785 0.130243
v 3.139983 -0.044785 -0.130243
v 3.139983 0.044785 -0.130243
v 1.000000 0.184900 -1.000000
v 1.000000 -0.184900 -1.000000
v 1.000000 0.184900 1.000000
v 1.000000 -0.184900 1.000000
v -1.000000 0.184900 -1.000000
v -1.000000 -0.184900 -1.000000
v -1.000000 0.184900 1.000000
v -1.000000 -0.184900 1.000000
v -3.131181 -0.769670 0.666892
v -3.131181 0.962380 -0.333108
v -3.131181 -0.962380 0.333108
v -3.131181 0.769670 -0.666892
v -3.012743 -0.769670 0.666892
v -3.012743 0.962380 -0.333108
v -3.012743 -0.962380 0.333108
v -3.012743 0.769670 -0.666892
v -2.302115 -0.769670 0.666892
v -2.302115 0.962380 -0.333108
v -2.302115 -0.962380 0.333108
v -2.302115 0.769670 -0.666892
v -2.183677 -0.769670 0.666892
v -2.183677 0.962380 -0.333108
v -2.183677 -0.962380 0.333108
v -2.183677 0.769670 -0.666892
v -1.473050 -0.769670 0.666892
v -1.473050 0.962380 -0.333108
v -1.473050 -0.962380 0.333108
v -1.473050 0.769670 -0.666892
v -1.354612 -0.769670 0.666892
v -1.354612 0.962380 -0.333108
v -1.354612 -0.962380 0.333108
v -1.354612 0.769670 -0.666892
v 1.354615 -0.769670 0.666892
v 1.354615 0.962380 -0.333108
v 1.354615 -0.962380 0.333108
v 1.354615 0.769670 -0.666892
v 1.473053 -0.769670 0.666892
v 1.473053 0.962380 -0.333108
v 1.473053 -0.962380 0.333108
v 1.473053 0.769670 -0.666892
v 2.183681 -0.769670 0.666892
v 2.183681 0.962380 -0.333108
v 2.183681 -0.962380 0.333108
v 2.183681 0.769670 -0.666892
v 2.302119 -0.769670 0.666892
v 2.302119 0.962380 -0.333108
v 2.302119 -0.962380 0.333108
v 2.302119 0.769670 -0.666892
v 3.012747 -0.769670 0.666892
v 3.012747 0.962380 -0.333108
v 3.012747 -0.962380 0.333108
v 3.012747 0.769670 -0.666892
v 3.131184 -0.769670 0.666892
v 3.131184 0.962380 -0.333108
v 3.131184 -0.962380 0.333108
v 3.131184 0.769670 -0.666892
vt 0.375000 0.000000
vt 0.625000 0.000000
vt 0.625000 0.250000
vt 0.375000 0.250000
vt 0.625000 0.500000
vt 0.375000 0.500000
vt 0.625000 0.750000
vt 0.375000 0.750000
vt 0.625000 1.000000
vt 0.375000 1.000000
vt 0.125000 0.500000
vt 0.125000 0.750000
vt 0.875000 0.500000
vt 0.875000 0.750000
vt 0.625000 0.500000
vt 0.875000 0.500000
vt 0.875000 0.750000
vt 0.625000 0.750000
vt 0.375000 0.750000
vt 0.625000 1.000000
vt 0.375000 1.000000
vt 0.375000 0.000000
vt 0.625000 0.000000
vt 0.625000 0.250000
vt 0.375000 0.250000
vt 0.125000 0.500000
vt 0.375000 0.500000
vt 0.125000 0.750000
vt 0.375000 0.000000
vt 0.625000 0.000000
vt 0.625000 0.250000
vt 0.375000 0.250000
vt 0.625000 0.500000
vt 0.375000 0.500000
vt 0.625000 0.750000
vt 0.375000 0.750000
vt 0.625000 1.000000
vt 0.375000 1.000000
vt 0.125000 0.500000
vt 0.125000 0.750000
vt 0.875000 0.500000
vt 0.875000 0.750000
vt 0.375000 0.000000
vt 0.625000 0.000000
vt 0.625000 0.250000
vt 0.375000 0.250000
vt 0.625000 0.500000
vt 0.375000 0.500000
vt 0.625000 0.750000
vt 0.375000 0.750000
vt 0.625000 1.000000
vt 0.375000 1.000000
vt 0.125000 0.500000
vt 0.125000 0.750000
vt 0.875000 0.500000
vt 0.875000 0.750000
vt 0.375000 0.000000
vt 0.625000 0.000000
vt 0.625000 0.250000
vt 0.375000 0.250000
vt 0.625000 0.500000
vt 0.375000 0.500000
vt 0.625000 0.750000
vt 0.375000 0.750000
vt 0.625000 1.000000
vt 0.375000 1.000000
vt 0.125000 0.500000
vt 0.125000 0.750000
vt 0.875000 0.500000
vt 0.875000 0.750000
vt 0.375000 0.000000
vt 0.625000 0.000000
vt 0.625000 0.250000
vt 0.375000 0.250000
vt 0.625000 0.500000
vt 0.375000 0.500000
vt 0.625000 0.750000
vt 0.375000 0.750000
vt 0.625000 1.000000
vt 0.375000 1.000000
vt 0.125000 0.500000
vt 0.125000 0.750000
vt 0.875000 0.500000
vt 0.875000 0.750000
vt 0.375000 0.000000
vt 0.625000 0.000000
vt 0.625000 0.250000
vt 0.375000 0.250000
vt 0.625000 0.500000
vt 0.375000 0.500000
vt 0.625000 0.750000
vt 0.375000 0.750000
vt 0.625000 1.000000
vt 0.375000 1.000000
vt 0.125000 0.500000
vt 0.125000 0.750000
vt 0.875000 0.500000
vt 0.875000 0.750000
vt 0.375000 0.000000
vt 0.625000 0.000000
vt 0.625000 0.250000
vt 0.375000 0.250000
vt 0.625000 0.500000
vt 0.375000 0.500000
vt 0.625000 0.750000
vt 0.375000 0.750000
vt 0.625000 1.000000
vt 0.375000 1.000000
vt 0.125000 0.500000
vt 0.125000 0.750000
vt 0.875000 0.500000
vt 0.875000 0.750000
vn -1.0000 0.0000 0.0000
vn 0.0000 0.0000 -1.0000
vn 1.0000 0.0000 0.0000
vn 0.0000 0.0000 1.0000
vn 0.0000 -1.0000 0.0000
vn 0.0000 1.0000 0.0000
vn 0.0000 -0.5000 -0.8660
vn 0.0000 0.5000 0.8660
vn 0.0000 -0.8660 0.5000
vn 0.0000 0.8660 -0.5000
usemtl Material.002
s off
f 1/1/1 2/2/1 4/3/1 3/4/1
f 3/4/2 4/3/2 8/5/2 7/6/2
f 7/6/3 8/5/3 6/7/3 5/8/3
f 5/8/4 6/7/4 2/9/4 1/10/4
f 3/11/5 7/6/5 5/8/5 1/12/5
f 8/5/6 4/13/6 2/14/6 6/7/6
usemtl Material
f 9/15/6 13/16/6 15/17/6 11/18/6
f 12/19/4 11/18/4 15/20/4 16/21/4
f 16/22/1 15/23/1 13/24/1 14/25/1
f 14/26/5 10/27/5 12/19/5 16/28/5
f 10/27/3 9/15/3 11/18/3 12/19/3
f 14/25/2 13/24/2 9/15/2 10/27/2
usemtl Material.001
f 17/29/1 18/30/1 20/31/1 19/32/1
f 19/32/7 20/31/7 24/33/7 23/34/7
f 23/34/3 24/33/3 22/35/3 21/36/3
f 21/36/8 22/35/8 18/37/8 17/38/8
f 19/39/9 23/34/9 21/36/9 17/40/9
f 24/33/10 20/41/10 18/42/10 22/35/10
f 25/43/1 26/44/1 28/45/1 27/46/1
f 27/46/7 28/45/7 32/47/7 31/48/7
f 31/48/3 32/47/3 30/49/3 29/50/3
f 29/50/8 30/49/8 26/51/8 25/52/8
f 27/53/9 31/48/9 29/50/9 25/54/9
f 32/47/10 28/55/10 26/56/10 30/49/10
f 33/57/1 34/58/1 36/59/1 35/60/1
f 35/60/7 36/59/7 40/61/7 39/62/7
f 39/62/3 40/61/3 38/63/3 37/64/3
f 37/64/8 38/63/8 34/65/8 33/66/8
f 35/67/9 39/62/9 37/64/9 33/68/9
f 40/61/10 36/69/10 34/70/10 38/63/10
f 41/71/1 42/72/1 44/73/1 43/74/1
f 43/74/7 44/73/7 48/75/7 47/76/7
f 47/76/3 48/75/3 46/77/3 45/78/3
f 45/78/8 46/77/8 42/79/8 41/80/8
f 43/81/9 47/76/9 45/78/9 41/82/9
f 48/75/10 44/83/10 42/84/10 46/77/10
f 49/85/1 50/86/1 52/87/1 51/88/1
f 51/88/7 52/87/7 56/89/7 55/90/7
f 55/90/3 56/89/3 54/91/3 53/92/3
f 53/92/8 54/91/8 50/93/8 49/94/8
f 51/95/9 55/90/9 53/92/9 49/96/9
f 56/89/10 52/97/10 50/98/10 54/91/10
f 57/99/1 58/100/1 60/101/1 59/102/1
f 59/102/7 60/101/7 64/103/7 63/104/7
f 63/104/3 64/103/3 62/105/3 61/106/3
f 61/106/8 62/105/8 58/107/8 57/108/8
f 59/109/9 63/104/9 61/106/9 57/110/9
f 64/103/10 60/111/10 58/112/10 62/105/10
